<svg xmlns="http://www.w3.org/2000/svg" width="50" height="50" viewBox="0 0 50 50">
  <rect width="50" height="50" fill="#769656"/>
  <g fill="#333333" stroke="#1a1a1a" stroke-width="1.5">
    <!-- Base -->
    <path d="M11,44 L39,44 L37,40 L13,40 Z"/>
    <!-- Lower body -->
    <path d="M14,40 L17,32 L33,32 L36,40 Z"/>
    <!-- Upper body -->
    <path d="M17,32 L16,24 L34,24 L33,32 Z"/>
    <!-- Crown arch -->
    <path d="M15,24 L14,16 L18,20 L22,16 L25,20 L28,16 L32,20 L36,16 L35,24 Z"/>
    <!-- Crown band -->
    <rect x="15" y="23" width="20" height="2" rx="0.5"/>
    <!-- Cross vertical -->
    <rect x="23.5" y="4" width="3" height="12" rx="0.5"/>
    <!-- Cross horizontal -->
    <rect x="20" y="7" width="10" height="3" rx="0.5"/>
  </g>
</svg>
