<svg xmlns="http://www.w3.org/2000/svg" width="50" height="50" viewBox="0 0 50 50">
  <rect width="50" height="50" fill="#EEEED2"/>
  <g fill="#FFFFFF" stroke="#333333" stroke-width="1.5" stroke-linejoin="round" stroke-linecap="round">
    <!-- Base -->
    <path d="M13,44 L37,44 L35,40 L15,40 Z"/>
    <!-- Lower collar -->
    <path d="M17,40 L18,37 L32,37 L33,40 Z"/>
    <!-- Body -->
    <path d="M19,37 Q16,32 17,26 Q18,22 21,18 L20,16 Q19,14 21,12 Q23,10 25,9 Q27,10 29,12 Q31,14 30,16 L29,18 Q32,22 33,26 Q34,32 31,37 Z"/>
    <!-- Pointed top -->
    <path d="M25,9 L24,6 L25,4 L26,6 Z"/>
    <!-- Diagonal slit -->
    <line x1="22" y1="28" x2="28" y2="18" stroke="#333333" stroke-width="1.2" fill="none"/>
  </g>
</svg>
