<svg xmlns="http://www.w3.org/2000/svg" width="50" height="50" viewBox="0 0 50 50">
  <rect width="50" height="50" fill="#EEEED2"/>
  <g fill="#FFFFFF" stroke="#333333" stroke-width="1.5" stroke-linejoin="round" stroke-linecap="round">
    <!-- Base -->
    <path d="M12,44 L38,44 L36,40 L14,40 Z"/>
    <!-- Body and head -->
    <path d="M16,40 L16,32 Q16,26 18,23 L14,18 Q13,16 15,15 L18,14 L17,11 Q17,9 19,8 L22,7 Q24,6.5 26,8 L28,10 Q30,8 32,9 Q34,10 33,13 L32,15 Q35,18 35,22 L35,28 Q35,34 34,40 Z"/>
    <!-- Eye -->
    <circle cx="22" cy="14" r="1.5" fill="#333333" stroke="none"/>
    <!-- Nostril -->
    <circle cx="16" cy="17" r="1" fill="#333333" stroke="none"/>
    <!-- Ear -->
    <path d="M26,8 L28,5 L30,8" fill="#FFFFFF"/>
  </g>
</svg>
