<svg xmlns="http://www.w3.org/2000/svg" width="50" height="50" viewBox="0 0 50 50">
  <rect width="50" height="50" fill="#EEEED2"/>
  <g fill="#FFFFFF" stroke="#333333" stroke-width="1.5" stroke-linejoin="round" stroke-linecap="round">
    <!-- Base -->
    <path d="M12,44 L38,44 L36,40 L14,40 Z"/>
    <!-- Lower collar -->
    <path d="M15,40 L16,37 L34,37 L35,40 Z"/>
    <!-- Body -->
    <path d="M17,37 Q15,32 16,27 L12,14 L18,22 L22,12 L25,20 L28,12 L32,22 L38,14 L34,27 Q35,32 33,37 Z"/>
    <!-- Crown points - small circles -->
    <circle cx="12" cy="12" r="2"/>
    <circle cx="22" cy="10" r="2"/>
    <circle cx="25" cy="8" r="2"/>
    <circle cx="28" cy="10" r="2"/>
    <circle cx="38" cy="12" r="2"/>
    <!-- Rim -->
    <path d="M17,29 Q25,26 33,29" fill="none"/>
  </g>
</svg>
