<svg xmlns="http://www.w3.org/2000/svg" width="50" height="50" viewBox="0 0 50 50">
  <rect width="50" height="50" fill="#EEEED2"/>
  <g fill="#FFFFFF" stroke="#333333" stroke-width="1.5" stroke-linejoin="round" stroke-linecap="round">
    <!-- Base -->
    <path d="M12,44 L38,44 L36,40 L14,40 Z"/>
    <!-- Lower body -->
    <path d="M15,40 L16,36 L34,36 L35,40 Z"/>
    <!-- Middle body -->
    <path d="M17,36 L18,18 L32,18 L33,36 Z"/>
    <!-- Top rim -->
    <path d="M16,18 L34,18 L34,15 L16,15 Z"/>
    <!-- Battlements -->
    <path d="M16,15 L16,10 L20,10 L20,13 L23,13 L23,10 L27,10 L27,13 L30,13 L30,10 L34,10 L34,15 Z"/>
  </g>
</svg>
