<svg xmlns="http://www.w3.org/2000/svg" width="362" height="362">
  <rect width="362" height="362" rx="8" fill="#161b22"/>
  <text x="46" y="16" text-anchor="middle" fill="#848d97" font-family="monospace" font-size="11">0</text>
  <text x="88" y="16" text-anchor="middle" fill="#848d97" font-family="monospace" font-size="11">1</text>
  <text x="130" y="16" text-anchor="middle" fill="#848d97" font-family="monospace" font-size="11">2</text>
  <text x="172" y="16" text-anchor="middle" fill="#848d97" font-family="monospace" font-size="11">3</text>
  <text x="214" y="16" text-anchor="middle" fill="#848d97" font-family="monospace" font-size="11">4</text>
  <text x="256" y="16" text-anchor="middle" fill="#848d97" font-family="monospace" font-size="11">5</text>
  <text x="298" y="16" text-anchor="middle" fill="#848d97" font-family="monospace" font-size="11">6</text>
  <text x="340" y="16" text-anchor="middle" fill="#848d97" font-family="monospace" font-size="11">7</text>
  <text x="12" y="50" text-anchor="middle" fill="#848d97" font-family="monospace" font-size="11">0</text>
  <rect x="26" y="26" width="40" height="40" rx="4" fill="#2d333b"/>
  <rect x="68" y="26" width="40" height="40" rx="4" fill="#2d333b"/>
  <rect x="110" y="26" width="40" height="40" rx="4" fill="#2d333b"/>
  <rect x="152" y="26" width="40" height="40" rx="4" fill="#2d333b"/>
  <rect x="194" y="26" width="40" height="40" rx="4" fill="#2d333b"/>
  <rect x="236" y="26" width="40" height="40" rx="4" fill="#2d333b"/>
  <rect x="278" y="26" width="40" height="40" rx="4" fill="#2d333b"/>
  <rect x="320" y="26" width="40" height="40" rx="4" fill="#2d333b"/>
  <text x="12" y="92" text-anchor="middle" fill="#848d97" font-family="monospace" font-size="11">1</text>
  <rect x="26" y="68" width="40" height="40" rx="4" fill="#2d333b"/>
  <rect x="68" y="68" width="40" height="40" rx="4" fill="#2d333b"/>
  <rect x="110" y="68" width="40" height="40" rx="4" fill="#2d333b"/>
  <rect x="152" y="68" width="40" height="40" rx="4" fill="#2d333b"/>
  <rect x="194" y="68" width="40" height="40" rx="4" fill="#2d333b"/>
  <rect x="236" y="68" width="40" height="40" rx="4" fill="#2d333b"/>
  <rect x="278" y="68" width="40" height="40" rx="4" fill="#2d333b"/>
  <rect x="320" y="68" width="40" height="40" rx="4" fill="#2d333b"/>
  <text x="12" y="134" text-anchor="middle" fill="#848d97" font-family="monospace" font-size="11">2</text>
  <rect x="26" y="110" width="40" height="40" rx="4" fill="#2d333b"/>
  <rect x="68" y="110" width="40" height="40" rx="4" fill="#2d333b"/>
  <rect x="110" y="110" width="40" height="40" rx="4" fill="#2d333b"/>
  <rect x="152" y="110" width="40" height="40" rx="4" fill="#2d333b"/>
  <rect x="194" y="110" width="40" height="40" rx="4" fill="#2d333b"/>
  <rect x="236" y="110" width="40" height="40" rx="4" fill="#2d333b"/>
  <rect x="278" y="110" width="40" height="40" rx="4" fill="#2d333b"/>
  <rect x="320" y="110" width="40" height="40" rx="4" fill="#2d333b"/>
  <text x="12" y="176" text-anchor="middle" fill="#848d97" font-family="monospace" font-size="11">3</text>
  <rect x="26" y="152" width="40" height="40" rx="4" fill="#2d333b"/>
  <rect x="68" y="152" width="40" height="40" rx="4" fill="#2d333b"/>
  <rect x="110" y="152" width="40" height="40" rx="4" fill="#2d333b"/>
  <rect x="152" y="152" width="40" height="40" rx="4" fill="#2d333b"/>
  <rect x="194" y="152" width="40" height="40" rx="4" fill="#2d333b"/>
  <rect x="236" y="152" width="40" height="40" rx="4" fill="#2d333b"/>
  <rect x="278" y="152" width="40" height="40" rx="4" fill="#2d333b"/>
  <rect x="320" y="152" width="40" height="40" rx="4" fill="#2d333b"/>
  <text x="12" y="218" text-anchor="middle" fill="#848d97" font-family="monospace" font-size="11">4</text>
  <rect x="26" y="194" width="40" height="40" rx="4" fill="#2d333b"/>
  <rect x="68" y="194" width="40" height="40" rx="4" fill="#2d333b"/>
  <rect x="110" y="194" width="40" height="40" rx="4" fill="#2d333b"/>
  <rect x="152" y="194" width="40" height="40" rx="4" fill="#2d333b"/>
  <rect x="194" y="194" width="40" height="40" rx="4" fill="#2d333b"/>
  <rect x="236" y="194" width="40" height="40" rx="4" fill="#2d333b"/>
  <rect x="278" y="194" width="40" height="40" rx="4" fill="#2d333b"/>
  <rect x="320" y="194" width="40" height="40" rx="4" fill="#2d333b"/>
  <text x="12" y="260" text-anchor="middle" fill="#848d97" font-family="monospace" font-size="11">5</text>
  <rect x="26" y="236" width="40" height="40" rx="4" fill="#2d333b"/>
  <rect x="68" y="236" width="40" height="40" rx="4" fill="#2d333b"/>
  <rect x="110" y="236" width="40" height="40" rx="4" fill="#2d333b"/>
  <rect x="152" y="236" width="40" height="40" rx="4" fill="#2d333b"/>
  <rect x="194" y="236" width="40" height="40" rx="4" fill="#2d333b"/>
  <rect x="236" y="236" width="40" height="40" rx="4" fill="#2d333b"/>
  <rect x="278" y="236" width="40" height="40" rx="4" fill="#2d333b"/>
  <rect x="320" y="236" width="40" height="40" rx="4" fill="#2d333b"/>
  <text x="12" y="302" text-anchor="middle" fill="#848d97" font-family="monospace" font-size="11">6</text>
  <rect x="26" y="278" width="40" height="40" rx="4" fill="#2d333b"/>
  <rect x="68" y="278" width="40" height="40" rx="4" fill="#2d333b"/>
  <rect x="110" y="278" width="40" height="40" rx="4" fill="#2d333b"/>
  <rect x="152" y="278" width="40" height="40" rx="4" fill="#2d333b"/>
  <rect x="194" y="278" width="40" height="40" rx="4" fill="#2d333b"/>
  <rect x="236" y="278" width="40" height="40" rx="4" fill="#2d333b"/>
  <rect x="278" y="278" width="40" height="40" rx="4" fill="#2d333b"/>
  <rect x="320" y="278" width="40" height="40" rx="4" fill="#2d333b"/>
  <text x="12" y="344" text-anchor="middle" fill="#848d97" font-family="monospace" font-size="11">7</text>
  <rect x="26" y="320" width="40" height="40" rx="4" fill="#2d333b"/>
  <rect x="68" y="320" width="40" height="40" rx="4" fill="#2d333b"/>
  <rect x="110" y="320" width="40" height="40" rx="4" fill="#2d333b"/>
  <rect x="152" y="320" width="40" height="40" rx="4" fill="#2d333b"/>
  <rect x="194" y="320" width="40" height="40" rx="4" fill="#2d333b"/>
  <rect x="236" y="320" width="40" height="40" rx="4" fill="#2d333b"/>
  <rect x="278" y="320" width="40" height="40" rx="4" fill="#2d333b"/>
  <rect x="320" y="320" width="40" height="40" rx="4" fill="#2d333b"/>
</svg>
