<svg xmlns="http://www.w3.org/2000/svg" width="50" height="50" viewBox="0 0 50 50">
  <rect width="50" height="50" fill="#EEEED2"/>
  <g fill="#333333" stroke="#1a1a1a" stroke-width="1.5" stroke-linejoin="round">
    <!-- Base -->
    <path d="M12,44 L38,44 L36,40 L14,40 Z"/>
    <!-- Pedestal -->
    <path d="M14,40 L16,37 L34,37 L36,40 Z"/>
    <!-- Horse head and neck -->
    <path d="M16,37 L16,28 Q15,22 14,19 Q13,16 15,13 Q17,10 20,9 L22,7 Q24,5 26,6 L28,5 Q27,8 26,9 Q28,8 30,8 Q33,9 34,12 Q36,16 35,20 Q34,24 32,27 L34,28 Q36,30 35,33 L34,37 Z"/>
    <!-- Eye -->
    <circle cx="22" cy="14" r="1.5" fill="#EEEED2" stroke="none"/>
    <!-- Ear -->
    <path d="M20,9 L18,5 L22,7" fill="#333333" stroke="#1a1a1a" stroke-width="1"/>
  </g>
</svg>