<svg xmlns="http://www.w3.org/2000/svg" width="50" height="50" viewBox="0 0 50 50">
  <rect width="50" height="50" fill="#EEEED2"/>
  <g fill="#333333" stroke="#1a1a1a" stroke-width="1.5" stroke-linejoin="round">
    <!-- Base -->
    <path d="M14,44 L36,44 L34,40 L16,40 Z"/>
    <!-- Pedestal -->
    <path d="M16,40 L18,36 L32,36 L34,40 Z"/>
    <!-- Body -->
    <path d="M18,36 Q17,30 20,26 L19,24 Q18,22 20,20 L17,18 Q16,16 18,14 Q20,12 22,13 L21,12 Q20,10 22,8 Q24,6 26,6 Q30,6 30,10 Q30,12 28,13 L29,13 Q32,12 34,14 Q35,16 33,18 L30,20 Q32,22 31,24 L30,26 Q33,30 32,36 Z"/>
    <!-- Head (ball) -->
    <circle cx="25" cy="12" r="6"/>
  </g>
</svg>