<svg xmlns="http://www.w3.org/2000/svg" width="50" height="50" viewBox="0 0 50 50">
  <rect width="50" height="50" fill="#EEEED2"/>
  <g fill="#333333" stroke="#1a1a1a" stroke-width="1.5" stroke-linejoin="round">
    <!-- Base -->
    <path d="M12,44 L38,44 L36,40 L14,40 Z"/>
    <!-- Pedestal -->
    <path d="M14,40 L16,37 L34,37 L36,40 Z"/>
    <!-- Body -->
    <path d="M16,37 Q14,30 16,24 L14,23 L11,10 L18,18 L21,8 L25,16 L29,8 L32,18 L39,10 L36,23 L34,24 Q36,30 34,37 Z"/>
    <!-- Crown points - balls -->
    <circle cx="11" cy="9" r="2"/>
    <circle cx="21" cy="7" r="2"/>
    <circle cx="25" cy="5" r="2"/>
    <circle cx="29" cy="7" r="2"/>
    <circle cx="39" cy="9" r="2"/>
  </g>
</svg>