<svg xmlns="http://www.w3.org/2000/svg" width="50" height="50" viewBox="0 0 50 50">
  <rect width="50" height="50" fill="#EEEED2"/>
  <g fill="#333333" stroke="#1a1a1a" stroke-width="1.5" stroke-linejoin="round">
    <!-- Base -->
    <path d="M12,44 L38,44 L36,40 L14,40 Z"/>
    <!-- Pedestal -->
    <path d="M14,40 L16,37 L34,37 L36,40 Z"/>
    <!-- Body -->
    <path d="M17,37 L18,18 L32,18 L33,37 Z"/>
    <!-- Top rim -->
    <path d="M16,18 L34,18 L34,15 L16,15 Z"/>
    <!-- Battlements -->
    <path d="M14,15 L14,9 L18,9 L18,12 L22,12 L22,9 L28,9 L28,12 L32,12 L32,9 L36,9 L36,15 Z"/>
  </g>
</svg>