<svg xmlns="http://www.w3.org/2000/svg" width="50" height="50" viewBox="0 0 50 50">
  <rect width="50" height="50" fill="#769656"/>
  <g fill="#FFFFFF" stroke="#333333" stroke-width="1.5" stroke-linejoin="round" stroke-linecap="round">
    <!-- Base -->
    <path d="M11,43 L39,43 L37,39 L13,39 Z"/>
    <!-- Lower body -->
    <path d="M14,39 L16,32 L34,32 L36,39 Z"/>
    <!-- Body -->
    <path d="M17,32 L15,22 L35,22 L33,32 Z"/>
    <!-- Crown arch -->
    <path d="M15,22 L13,14 L19,18 L25,14 L31,18 L37,14 L35,22 Z"/>
    <!-- Crown band -->
    <rect x="14" y="21" width="22" height="2" rx="1"/>
    <!-- Cross vertical -->
    <line x1="25" y1="5" x2="25" y2="13" stroke="#333333" stroke-width="1.5"/>
    <rect x="23.5" y="4" width="3" height="10" rx="1"/>
    <!-- Cross horizontal -->
    <rect x="21" y="6" width="8" height="3" rx="1"/>
  </g>
</svg>
